HIERARCHY
ROOT root
{
	OFFSET 0.000000 0.000000 0.000000
	CHANNELS 6 Xposition Yposition Zposition Zrotation Yrotation Xrotation
	JOINT lhip
	{
		OFFSET 0.058581 -0.082280 -0.017664
		CHANNELS 3 Zrotation Yrotation Xrotation
		JOINT lknee
		{
			OFFSET 0.043451 -0.386469 0.008037
			CHANNELS 3 Zrotation Yrotation Xrotation
			JOINT lankle
			{
				OFFSET -0.014790 -0.426874 -0.037428
				CHANNELS 3 Zrotation Yrotation Xrotation
				JOINT ltoe
				{
					OFFSET 0.041054 -0.060286 0.122042
					CHANNELS 3 Zrotation Yrotation Xrotation
					End Site
					{
						OFFSET 0.000000 0.000000 0.000000
					}
				}
			}
		}
	}
	JOINT rhip
	{
		OFFSET -0.060310 -0.090513 -0.013543
		CHANNELS 3 Zrotation Yrotation Xrotation
		JOINT rknee
		{
			OFFSET -0.043257 -0.383688 -0.004843
			CHANNELS 3 Zrotation Yrotation Xrotation
			JOINT rankle
			{
				OFFSET 0.019056 -0.420046 -0.034562
				CHANNELS 3 Zrotation Yrotation Xrotation
				JOINT rtoe
				{
					OFFSET -0.034840 -0.062106 0.130323
					CHANNELS 3 Zrotation Yrotation Xrotation
					End Site
					{
						OFFSET 0.000000 0.000000 0.000000
					}
				}
			}
		}
	}
	JOINT lowerback
	{
		OFFSET 0.004439 0.124404 -0.038385
		CHANNELS 3 Zrotation Yrotation Xrotation
		JOINT upperback
		{
			OFFSET 0.004488 0.137956 0.026820
			CHANNELS 3 Zrotation Yrotation Xrotation
			JOINT chest
			{
				OFFSET -0.002265 0.056032 0.002855
				CHANNELS 3 Zrotation Yrotation Xrotation
				JOINT lowerneck
				{
					OFFSET -0.013390 0.211636 -0.033468
					CHANNELS 3 Zrotation Yrotation Xrotation
					JOINT upperneck
					{
						OFFSET 0.010113 0.088937 0.050410
						CHANNELS 3 Zrotation Yrotation Xrotation
						End Site
						{
							OFFSET 0.000000 0.000000 0.000000
						}
					}
				}
				JOINT lclavicle
				{
					OFFSET 0.071702 0.114000 -0.018898
					CHANNELS 3 Zrotation Yrotation Xrotation
					JOINT lshoulder
					{
						OFFSET 0.122921 0.045205 -0.019046
						CHANNELS 3 Zrotation Yrotation Xrotation
						JOINT lelbow
						{
							OFFSET 0.255332 -0.015649 -0.022946
							CHANNELS 3 Zrotation Yrotation Xrotation
							JOINT lwrist
							{
								OFFSET 0.265709 0.012698 -0.007375
								CHANNELS 3 Zrotation Yrotation Xrotation
								End Site
								{
									OFFSET 0.000000 0.000000 0.000000
								}
							}
						}
					}
				}
				JOINT rclavicle
				{
					OFFSET -0.082954 0.112472 -0.023707
					CHANNELS 3 Zrotation Yrotation Xrotation
					JOINT rshoulder
					{
						OFFSET -0.113228 0.046853 -0.008472
						CHANNELS 3 Zrotation Yrotation Xrotation
						JOINT relbow
						{
							OFFSET -0.260127 -0.014369 -0.031269
							CHANNELS 3 Zrotation Yrotation Xrotation
							JOINT rwrist
							{
								OFFSET -0.269108 0.006794 -0.006027
								CHANNELS 3 Zrotation Yrotation Xrotation
								End Site
								{
									OFFSET 0.000000 0.000000 0.000000
								}
							}
						}
					}
				}
			}
		}
	}
}
MOTION
Frames: 10
Frame Time: 0.033333
-0.972563 0.834368 0.561304 89.788117 1.246847 70.579056 21.864721 18.680784 -64.270693 -15.585008 15.328250 64.628626 -10.099105 -16.133272 2.593709 0.000000 -0.000000 0.000000 -16.407570 -15.987054 -68.680435 7.045698 -16.896202 71.903723 11.850365 13.515738 4.823133 0.000000 -0.000000 0.000000 -0.893328 -3.582753 33.790837 2.971404 0.302407 -6.566475 -0.625442 -2.686922 5.575203 8.606246 14.016532 0.522035 0.775884 -4.979985 -5.704560 -10.088600 24.749530 -5.669210 -62.187549 -6.990176 14.298274 138.908273 -66.665887 -111.216135 11.000097 -11.569576 -15.903214 14.063805 -18.951721 4.601002 66.935252 6.723931 10.469710 -25.057968 82.056274 -19.517483 -14.565455 0.524832 -47.175818 
-0.972790 0.835646 0.561992 89.814521 1.390334 70.314384 22.260550 18.972945 -63.771480 -15.823931 15.834309 64.317157 -10.242136 -16.322442 2.915088 0.000000 -0.000000 0.000000 -16.693416 -15.878274 -68.223821 6.726380 -17.284228 71.918895 11.892215 14.122155 4.936048 0.000000 -0.000000 0.000000 -0.876529 -3.624724 33.194911 2.777967 -0.132632 -3.776600 -0.562498 -2.445339 4.195907 8.536356 14.736732 2.188344 1.608307 -5.924086 -9.649922 -8.550689 21.406851 -4.626732 -62.343987 -7.983136 13.621867 137.510032 -65.557771 -108.875154 10.604037 -12.059978 -13.828332 12.159784 -15.373663 7.141903 68.194033 6.873558 8.977912 -34.458513 81.096780 -27.189516 -13.662307 1.705691 -45.737588 
-0.974202 0.836783 0.563338 89.887279 1.436985 69.344192 22.263342 19.113767 -62.695149 -16.379684 15.681648 64.001881 -10.530415 -16.209901 3.252076 0.000000 -0.000000 0.000000 -16.968994 -15.695231 -67.019227 6.597398 -17.440201 71.802666 11.511996 14.389336 4.908212 0.000000 -0.000000 0.000000 -0.828122 -3.625551 33.032661 2.487487 -0.549283 -0.625468 -0.624289 -2.000621 3.258816 8.350228 14.866048 3.509547 2.144341 -6.842280 -13.095538 -7.258455 17.210495 -3.606591 -61.897096 -9.242620 12.564604 136.142222 -64.871552 -106.867587 11.560741 -12.823497 -12.465649 10.702010 -11.853170 8.227928 68.920612 6.587762 7.462815 -40.813432 81.138997 -32.865840 -13.626161 2.191602 -46.329026 
-0.976395 0.837857 0.564190 90.102315 1.521197 68.527321 22.186324 19.097752 -61.964851 -16.514461 15.488062 63.895480 -10.977485 -16.523486 3.534066 0.000000 -0.000000 0.000000 -17.357813 -15.494434 -65.833482 6.265263 -17.807105 71.527084 11.267617 14.524262 4.428323 0.000000 -0.000000 0.000000 -0.832941 -3.514395 33.507260 2.344965 -0.953316 1.438298 -0.528420 -1.805760 2.414686 8.016065 14.807053 5.191275 2.634903 -7.911765 -15.682848 -6.584837 13.637535 -2.958318 -61.078635 -10.458178 11.907009 135.816633 -64.002700 -106.310294 10.800292 -14.011221 -11.329172 10.005765 -8.209359 8.695249 68.665138 5.830058 6.584627 -54.220163 80.911643 -45.694314 -14.012385 2.727007 -46.832989 
-0.978469 0.838342 0.564698 90.115472 1.588024 67.877754 22.239921 18.928973 -61.194950 -16.777886 15.248285 63.519373 -11.029007 -16.436027 3.400440 0.000000 -0.000000 0.000000 -17.256308 -15.483132 -65.301252 6.542033 -17.395953 71.531064 11.408175 14.675259 5.069956 0.000000 -0.000000 0.000000 -0.805999 -3.388837 34.238106 2.327947 -1.042940 2.048566 -0.451577 -1.705038 2.173290 7.592129 14.383444 5.723146 2.706764 -8.334336 -15.980281 -6.965458 11.821785 -2.751651 -60.347261 -11.224345 11.676832 135.313377 -63.552698 -105.902986 10.115552 -14.243820 -10.846610 10.380328 -6.822333 8.852985 67.651499 5.668854 5.896057 -61.791076 80.891830 -53.094739 -13.317676 3.000876 -46.359854 
-0.981027 0.838809 0.564123 90.144531 1.624082 66.900568 22.259645 18.829947 -60.379002 -16.693111 15.163565 63.567297 -11.375503 -16.714935 3.758318 0.000000 -0.000000 0.000000 -17.279348 -15.154744 -64.327968 6.262457 -17.331793 71.373157 11.256508 14.649179 4.352466 0.000000 -0.000000 0.000000 -0.833697 -3.267134 35.333431 2.321829 -1.213682 2.884092 -0.363294 -1.620887 1.750114 7.032781 13.945709 6.383172 2.945338 -8.982860 -15.535836 -7.626313 10.240886 -2.367411 -59.779978 -11.925607 11.407994 134.444750 -62.740582 -105.210934 8.663806 -15.072123 -10.597956 11.531742 -5.405659 9.119798 66.248882 5.815958 5.217631 -72.625487 79.781473 -63.409234 -12.579485 4.631429 -45.072619 
-0.983864 0.838266 0.563928 89.993680 1.614686 65.979948 22.291672 18.726839 -59.486997 -16.794748 14.924818 63.529682 -11.085093 -16.916759 3.885199 0.000000 -0.000000 0.000000 -17.192467 -14.736751 -63.689064 6.147372 -17.045022 71.489727 11.155508 15.000870 4.634520 0.000000 -0.000000 0.000000 -0.889254 -3.118620 36.288811 2.448009 -1.227540 3.956066 -0.298750 -1.480858 1.236590 6.461694 13.383114 7.379919 2.618220 -9.628878 -15.653345 -8.605637 9.061147 -1.885346 -59.617487 -12.446933 11.341756 132.856877 -62.282906 -104.406608 8.790753 -15.905247 -10.371682 12.730121 -4.432840 9.068745 65.188709 5.726924 4.567160 -79.625885 78.480514 -69.458802 -11.987898 5.964066 -43.547352 
-0.987435 0.837250 0.564058 89.882323 1.645334 65.040691 22.306884 18.368188 -58.665777 -16.664490 14.723768 63.549835 -10.731441 -16.883412 3.657781 0.000000 -0.000000 0.000000 -17.024163 -14.192481 -62.859319 5.982333 -16.765328 71.347237 11.109146 15.055896 4.404969 0.000000 -0.000000 0.000000 -0.905192 -3.133195 37.406711 2.558501 -1.239709 4.249246 -0.348533 -1.451314 1.518240 6.022024 13.004563 8.121910 2.244483 -9.829031 -15.240116 -8.943811 9.175526 -1.515532 -60.517906 -12.702604 11.508651 131.453322 -62.663992 -103.295850 10.033387 -16.024977 -10.444856 13.681476 -4.253166 9.110390 64.530326 6.459639 4.247156 -83.441911 77.590799 -73.047017 -12.141244 6.181363 -41.136509 
-0.991228 0.835950 0.565035 89.765590 1.722549 63.817958 22.414007 18.186242 -57.385250 -16.842262 14.433039 63.216822 -10.906285 -16.829597 4.068730 0.000000 -0.000000 0.000000 -16.803799 -13.605732 -61.616619 6.002084 -16.377981 70.985942 10.860724 14.916338 4.663940 0.000000 -0.000000 0.000000 -0.839082 -3.264012 38.876703 2.536480 -1.163653 4.700740 -0.381311 -1.474872 1.773257 6.011072 12.771619 8.914460 1.713679 -9.806989 -15.136737 -9.478340 9.525927 -1.440139 -61.188648 -11.900029 11.453234 131.257274 -62.751166 -101.461823 11.408883 -15.823446 -9.697719 13.925498 -4.420669 9.004537 64.497092 6.997170 4.264904 -85.926219 77.198229 -75.068492 -14.226308 5.790784 -40.641800 
-0.996837 0.834020 0.564873 89.483982 1.620385 62.656997 22.668110 17.925083 -56.031322 -17.129551 14.158853 62.645651 -10.675360 -16.531956 4.157148 0.000000 -0.000000 0.000000 -16.479500 -12.888792 -60.577152 5.772079 -16.126069 70.503789 10.606049 14.621531 4.503467 0.000000 -0.000000 0.000000 -0.804672 -3.509990 40.176480 2.188167 -0.861147 5.097848 -0.555543 -1.489350 2.370823 6.290257 12.362561 10.065254 1.184324 -9.989650 -15.117015 -10.106210 10.443187 -1.101228 -61.457817 -10.709060 11.297646 131.400101 -63.040101 -101.304477 10.561870 -15.552469 -7.208663 14.045488 -4.654912 9.418662 64.909481 7.265187 4.151946 -88.971354 76.799885 -77.611517 -11.708811 5.886417 -40.011820 
